<svg width="256" height="256" viewBox="0 0 256 256" fill="none" xmlns="http://www.w3.org/2000/svg">
<path d="M10.4829 60.4165L39.2854 46.4227L68.0879 60.4165L39.2854 74.4103L10.4829 60.4165Z" fill="#FCEA6B"/>
<path d="M39.2854 74.4103V108.777L68.0879 94.7547V60.4165L39.2854 74.4103Z" fill="#FCEA6B"/>
<path d="M10.4829 94.7547V60.4165L39.2854 74.4103V108.777L10.4829 94.7547Z" fill="#D5C343"/>
<path d="M99.0541 203.165L127.857 189.143L156.659 203.165L127.857 217.158L99.0541 203.165Z" fill="#FCEA6B"/>
<path d="M127.857 217.158V251.497L156.659 237.503V203.165L127.857 217.158Z" fill="#FCEA6B"/>
<path d="M99.0541 237.503V203.165L127.857 217.158V251.497L99.0541 237.503Z" fill="#D5C343"/>
<path d="M99.0541 110.687L127.857 96.6936L156.659 110.687L127.857 124.681L99.0541 110.687Z" fill="#FCEA6B"/>
<path d="M127.857 124.681V159.02L156.659 145.026V110.688L127.857 124.681Z" fill="#FCEA6B"/>
<path d="M99.0541 145.026V110.688L127.857 124.681V159.02L99.0541 145.026Z" fill="#D5C343"/>
<path d="M99.0541 18.2104L127.857 4.21655L156.659 18.2104L127.857 32.2042L99.0541 18.2104Z" fill="#5DD5D8"/>
<path d="M127.857 32.2041V66.5704L156.659 52.5485V18.2103L127.857 32.2041Z" fill="#5DD5D8"/>
<path d="M99.0541 52.5485V18.2103L127.857 32.2041V66.5704L99.0541 52.5485Z" fill="#42A6A9"/>
<path d="M10.4829 160.958L39.2854 146.937L68.0879 160.958L39.2854 174.952L10.4829 160.958Z" fill="#5DD5D8"/>
<path d="M39.2854 174.952V209.29L68.0879 195.297V160.958L39.2854 174.952Z" fill="#5DD5D8"/>
<path d="M10.4829 195.297V160.958L39.2854 174.952V209.29L10.4829 195.297Z" fill="#42A6A9"/>
<path d="M187.625 160.958L216.428 146.937L245.23 160.958L216.428 174.952L187.625 160.958Z" fill="#5DD5D8"/>
<path d="M216.428 174.952V209.29L245.23 195.297V160.958L216.428 174.952Z" fill="#5DD5D8"/>
<path d="M187.625 195.297V160.958L216.428 174.952V209.29L187.625 195.297Z" fill="#42A6A9"/>
<path d="M187.625 60.4165L216.428 46.4227L245.23 60.4165L216.428 74.4103L187.625 60.4165Z" fill="#5DD5D8"/>
<path d="M216.428 74.4103V108.777L245.23 94.7547V60.4165L216.428 74.4103Z" fill="#5DD5D8"/>
<path d="M187.625 94.7547V60.4165L216.428 74.4103V108.777L187.625 94.7547Z" fill="#42A6A9"/>
<path d="M39.2826 77.2288C38.8639 77.2288 38.4424 77.1332 38.0546 76.9449L9.24933 62.9455C8.28269 62.4763 7.6673 61.4928 7.6673 60.4193C7.6673 59.3459 8.28269 58.3624 9.24933 57.8931L38.0546 43.8965C38.8274 43.52 39.7378 43.52 40.5106 43.8965L69.3159 57.8931C70.2825 58.3624 70.8979 59.3459 70.8979 60.4193C70.8979 61.4928 70.2825 62.4763 69.3159 62.9455L40.5106 76.9449C40.1228 77.1332 39.7013 77.2288 39.2826 77.2288ZM16.9066 60.4193L39.2826 71.294L61.6586 60.4193L39.2826 49.5446L16.9066 60.4193Z" fill="#E6D9A2"/>
<path d="M39.2826 111.575C38.8639 111.575 38.4424 111.48 38.0546 111.292L9.24933 97.295C8.28269 96.8258 7.6673 95.8423 7.6673 94.7688V60.4194C7.6673 59.4499 8.16467 58.5507 8.988 58.0365C9.80852 57.5223 10.837 57.4689 11.7053 57.8904L39.2826 71.2941L66.8599 57.8904C67.7282 57.4661 68.7567 57.5223 69.5772 58.0365C70.3977 58.5507 70.8979 59.4499 70.8979 60.4194V94.7688C70.8979 95.8451 70.2825 96.8258 69.3159 97.295L40.5106 111.292C40.1228 111.48 39.7013 111.575 39.2826 111.575ZM13.2873 93.0098L39.2826 105.644L65.2779 93.0098V64.9098L40.5106 76.9478C39.7378 77.3244 38.8274 77.3244 38.0546 76.9478L13.2873 64.9098V93.0098Z" fill="#E6D9A2"/>
<path d="M39.2826 111.575C37.7315 111.575 36.4726 110.317 36.4726 108.765V74.4188C36.4726 72.8676 37.7315 71.6088 39.2826 71.6088C40.8337 71.6088 42.0926 72.8676 42.0926 74.4188V108.765C42.0926 110.317 40.8337 111.575 39.2826 111.575Z" fill="#E6D9A2"/>
<path d="M127.857 35.0226C127.438 35.0226 127.016 34.927 126.629 34.7388L97.8234 20.7422C96.8567 20.2729 96.2413 19.2894 96.2413 18.216C96.2413 17.1426 96.8567 16.1591 97.8234 15.6898L126.629 1.69036C127.401 1.31382 128.312 1.31382 129.085 1.69036L157.89 15.6898C158.857 16.1591 159.472 17.1426 159.472 18.216C159.472 19.2894 158.857 20.2729 157.89 20.7422L129.085 34.7388C128.697 34.9299 128.275 35.0226 127.857 35.0226ZM105.481 18.216L127.857 29.0907L150.233 18.216L127.857 7.34127L105.481 18.216Z" fill="#E6D9A2"/>
<path d="M127.857 69.372C127.438 69.372 127.016 69.2764 126.629 69.0882L97.8234 55.0916C96.8567 54.6223 96.2413 53.6388 96.2413 52.5654V18.2159C96.2413 17.2465 96.7387 16.3473 97.5592 15.8331C98.3825 15.316 99.411 15.2654 100.279 15.6869L127.857 29.0906L155.431 15.6897C156.305 15.2682 157.334 15.3216 158.151 15.8359C158.972 16.3501 159.472 17.2493 159.472 18.2187V52.5654C159.472 53.6416 158.857 54.6223 157.89 55.0916L129.085 69.0882C128.697 69.2764 128.275 69.372 127.857 69.372ZM101.861 50.8035L127.857 63.4373L153.852 50.8035V22.7035L129.085 34.7387C128.312 35.1153 127.401 35.1153 126.629 34.7387L101.861 22.7063V50.8035Z" fill="#E6D9A2"/>
<path d="M127.857 69.372C126.306 69.372 125.047 68.1131 125.047 66.562V32.2126C125.047 30.6615 126.306 29.4026 127.857 29.4026C129.408 29.4026 130.667 30.6615 130.667 32.2126V66.5592C130.667 68.1131 129.408 69.372 127.857 69.372Z" fill="#E6D9A2"/>
<path d="M127.857 219.957C127.438 219.957 127.016 219.864 126.629 219.673L97.8234 205.677C96.8567 205.207 96.2413 204.224 96.2413 203.151C96.2413 202.077 96.8567 201.094 97.8234 200.624L126.629 186.628C127.401 186.248 128.312 186.248 129.085 186.628L157.89 200.624C158.857 201.094 159.472 202.077 159.472 203.151C159.472 204.224 158.857 205.207 157.89 205.677L129.085 219.673C128.697 219.864 128.275 219.957 127.857 219.957ZM105.481 203.151L127.857 214.022L150.233 203.151L127.857 192.279L105.481 203.151Z" fill="#E6D9A2"/>
<path d="M127.857 254.306C127.438 254.306 127.016 254.214 126.629 254.023L97.8234 240.026C96.8567 239.557 96.2413 238.573 96.2413 237.5V203.15C96.2413 202.181 96.7387 201.282 97.5592 200.768C98.3825 200.253 99.411 200.2 100.279 200.621L127.857 214.022L155.431 200.621C156.305 200.203 157.334 200.251 158.151 200.768C158.972 201.282 159.472 202.181 159.472 203.15V237.5C159.472 238.576 158.857 239.557 157.89 240.026L129.085 254.023C128.697 254.214 128.275 254.306 127.857 254.306ZM101.861 235.741L127.857 248.372L153.852 235.741V207.641L129.085 219.676C128.312 220.055 127.401 220.055 126.629 219.676L101.861 207.641V235.741Z" fill="#E6D9A2"/>
<path d="M127.857 254.307C126.306 254.307 125.047 253.051 125.047 251.497V217.147C125.047 215.593 126.306 214.337 127.857 214.337C129.408 214.337 130.667 215.593 130.667 217.147V251.497C130.667 253.051 129.408 254.307 127.857 254.307Z" fill="#E6D9A2"/>
<path d="M39.2826 177.757C38.8639 177.757 38.4424 177.664 38.0546 177.473L9.24933 163.473C8.28269 163.004 7.6673 162.021 7.6673 160.947C7.6673 159.874 8.28269 158.89 9.24933 158.421L38.0546 144.424C38.8274 144.045 39.7378 144.045 40.5106 144.424L69.3159 158.421C70.2825 158.89 70.8979 159.874 70.8979 160.947C70.8979 162.021 70.2825 163.004 69.3159 163.473L40.5106 177.473C40.1228 177.664 39.7013 177.757 39.2826 177.757ZM16.9066 160.944L39.2826 171.819L61.6586 160.944L39.2826 150.072L16.9066 160.944Z" fill="#E6D9A2"/>
<path d="M39.2826 212.1C38.8639 212.1 38.4424 212.008 38.0546 211.816L9.24933 197.82C8.28269 197.351 7.6673 196.367 7.6673 195.294V160.944C7.6673 159.975 8.16467 159.076 8.988 158.561C9.80852 158.044 10.837 157.991 11.7053 158.415L39.2826 171.819L66.8599 158.415C67.7282 157.991 68.7567 158.044 69.5772 158.561C70.3977 159.076 70.8979 159.975 70.8979 160.944V195.294C70.8979 196.37 70.2825 197.351 69.3159 197.82L40.5106 211.819C40.1228 212.008 39.7013 212.1 39.2826 212.1ZM13.2873 193.535L39.2826 206.166L65.2779 193.535V165.435L40.5106 177.473C39.7378 177.852 38.8274 177.852 38.0546 177.473L13.2873 165.435V193.535Z" fill="#E6D9A2"/>
<path d="M39.2826 212.1C37.7315 212.1 36.4726 210.844 36.4726 209.29V174.946C36.4726 173.393 37.7315 172.136 39.2826 172.136C40.8337 172.136 42.0926 173.393 42.0926 174.946V209.29C42.0926 210.844 40.8337 212.1 39.2826 212.1Z" fill="#E6D9A2"/>
<path d="M216.431 177.757C216.012 177.757 215.59 177.664 215.2 177.473L186.395 163.473C185.428 163.004 184.812 162.021 184.812 160.947C184.812 159.874 185.428 158.89 186.395 158.421L215.2 144.424C215.978 144.045 216.88 144.045 217.659 144.424L246.461 158.421C247.428 158.89 248.043 159.874 248.043 160.947C248.043 162.021 247.428 163.004 246.461 163.473L217.659 177.473C217.271 177.664 216.852 177.757 216.431 177.757ZM194.057 160.944L216.433 171.819L238.809 160.944L216.433 150.072L194.057 160.944Z" fill="#E6D9A2"/>
<path d="M216.431 212.1C216.012 212.1 215.59 212.008 215.2 211.816L186.395 197.82C185.428 197.351 184.812 196.367 184.812 195.294V160.944C184.812 159.975 185.313 159.076 186.133 158.561C186.954 158.044 187.982 157.991 188.853 158.415L216.428 171.819L244.002 158.415C244.876 157.994 245.905 158.047 246.722 158.561C247.543 159.076 248.043 159.975 248.043 160.944V195.294C248.043 196.37 247.428 197.351 246.461 197.82L217.659 211.816C217.271 212.008 216.852 212.1 216.431 212.1ZM190.438 193.535L216.433 206.166L242.426 193.535V165.435L217.661 177.473C216.883 177.852 215.981 177.852 215.203 177.473L190.438 165.435V193.535Z" fill="#E6D9A2"/>
<path d="M216.431 212.1C214.877 212.1 213.621 210.844 213.621 209.29V174.946C213.621 173.393 214.877 172.136 216.431 172.136C217.985 172.136 219.241 173.393 219.241 174.946V209.29C219.241 210.844 217.985 212.1 216.431 212.1Z" fill="#E6D9A2"/>
<path d="M216.431 77.2288C216.012 77.2288 215.59 77.1332 215.2 76.9449L186.397 62.9455C185.431 62.4763 184.815 61.4928 184.815 60.4193C184.815 59.3459 185.431 58.3624 186.397 57.8931L215.203 43.8965C215.981 43.52 216.883 43.52 217.661 43.8965L246.464 57.8931C247.431 58.3624 248.046 59.3459 248.046 60.4193C248.046 61.4928 247.431 62.4763 246.464 62.9455L217.661 76.9449C217.271 77.1332 216.852 77.2288 216.431 77.2288ZM194.057 60.4193L216.433 71.294L238.807 60.4193L216.433 49.5446L194.057 60.4193Z" fill="#E6D9A2"/>
<path d="M216.431 111.575C216.012 111.575 215.59 111.48 215.2 111.292L186.395 97.295C185.428 96.8257 184.812 95.8422 184.812 94.7688V60.4193C184.812 59.4499 185.313 58.5507 186.133 58.0365C186.954 57.5222 187.982 57.4688 188.853 57.8903L216.428 71.294L244.002 57.8903C244.876 57.4717 245.905 57.525 246.722 58.0365C247.543 58.5507 248.043 59.4499 248.043 60.4193V94.7688C248.043 95.845 247.428 96.8257 246.461 97.295L217.659 111.292C217.271 111.48 216.852 111.575 216.431 111.575ZM190.438 93.0097L216.433 105.643L242.426 93.0097V64.9097L217.661 76.945C216.883 77.3215 215.981 77.3215 215.203 76.945L190.438 64.9069V93.0097Z" fill="#E6D9A2"/>
<path d="M216.431 111.575C214.877 111.575 213.621 110.317 213.621 108.765V74.4188C213.621 72.8676 214.877 71.6088 216.431 71.6088C217.985 71.6088 219.241 72.8676 219.241 74.4188V108.765C219.241 110.317 217.985 111.575 216.431 111.575Z" fill="#E6D9A2"/>
<path d="M99.0485 210.128C98.6017 210.128 98.1465 210.021 97.725 209.796L66.7616 193.212C65.3931 192.478 64.8789 190.775 65.6123 189.407C66.3429 188.041 68.0486 187.527 69.417 188.257L100.38 204.842C101.749 205.576 102.263 207.278 101.53 208.647C101.021 209.591 100.052 210.128 99.0485 210.128Z" fill="#E6D9A2"/>
<path d="M39.2826 149.758C37.7315 149.758 36.4726 148.502 36.4726 146.948V108.765C36.4726 107.214 37.7315 105.955 39.2826 105.955C40.8337 105.955 42.0926 107.214 42.0926 108.765V146.948C42.0926 148.502 40.8337 149.758 39.2826 149.758Z" fill="#E6D9A2"/>
<path d="M68.0907 67.7899C67.0875 67.7899 66.1181 67.2532 65.6123 66.3063C64.8789 64.9378 65.3931 63.2349 66.7616 62.5015L97.725 45.9141C99.0935 45.1835 100.796 45.6977 101.53 47.0634C102.263 48.4318 101.749 50.1347 100.38 50.8681L69.417 67.4555C68.9927 67.6832 68.5375 67.7899 68.0907 67.7899Z" fill="#E6D9A2"/>
<path d="M187.625 67.79C187.179 67.79 186.723 67.6832 186.299 67.4556L155.333 50.8682C153.967 50.1348 153.45 48.4319 154.184 47.0634C154.917 45.6978 156.623 45.1779 157.988 45.9141L188.954 62.5016C190.32 63.235 190.837 64.9378 190.104 66.3063C189.598 67.2533 188.626 67.79 187.625 67.79Z" fill="#E6D9A2"/>
<path d="M216.431 149.758C214.877 149.758 213.621 148.502 213.621 146.948V108.765C213.621 107.214 214.877 105.955 216.431 105.955C217.985 105.955 219.241 107.214 219.241 108.765V146.948C219.241 148.502 217.985 149.758 216.431 149.758Z" fill="#E6D9A2"/>
<path d="M156.665 210.128C155.662 210.128 154.692 209.591 154.183 208.644C153.45 207.278 153.967 205.573 155.336 204.839L186.302 188.255C187.665 187.524 189.373 188.041 190.107 189.407C190.84 190.773 190.323 192.478 188.954 193.212L157.988 209.796C157.567 210.021 157.112 210.128 156.665 210.128Z" fill="#E6D9A2"/>
<path d="M127.857 127.491C127.438 127.491 127.016 127.396 126.629 127.207L97.8234 113.208C96.8567 112.739 96.2413 111.755 96.2413 110.682C96.2413 109.608 96.8567 108.625 97.8234 108.156L126.629 94.159C127.401 93.7825 128.312 93.7825 129.085 94.159L157.89 108.156C158.857 108.625 159.472 109.608 159.472 110.682C159.472 111.755 158.857 112.739 157.89 113.208L129.085 127.21C128.697 127.396 128.275 127.491 127.857 127.491ZM105.481 110.682L127.857 121.556L150.233 110.682L127.857 99.8099L105.481 110.682Z" fill="#E6D9A2"/>
<path d="M127.857 161.841C127.438 161.841 127.016 161.748 126.629 161.557L97.8234 147.557C96.8567 147.088 96.2413 146.105 96.2413 145.031V110.682C96.2413 109.712 96.7387 108.813 97.562 108.299C98.3854 107.785 99.411 107.729 100.279 108.153L127.857 121.557L155.431 108.153C156.305 107.731 157.334 107.785 158.151 108.299C158.972 108.813 159.472 109.712 159.472 110.682V145.028C159.472 146.105 158.857 147.085 157.89 147.555L129.085 161.554C128.697 161.748 128.275 161.841 127.857 161.841ZM101.861 143.269L127.857 155.903L153.852 143.269V115.169L129.085 127.207C128.312 127.584 127.401 127.584 126.629 127.207L101.861 115.169V143.269Z" fill="#E6D9A2"/>
<path d="M127.857 161.841C126.306 161.841 125.047 160.585 125.047 159.031V124.681C125.047 123.13 126.306 121.871 127.857 121.871C129.408 121.871 130.667 123.13 130.667 124.681V159.031C130.667 160.582 129.408 161.841 127.857 161.841Z" fill="#E6D9A2"/>
<path d="M68.2341 163.754C67.2168 163.754 66.2333 163.201 65.7332 162.234C65.0222 160.854 65.5617 159.16 66.9415 158.446L97.7615 142.53C99.1412 141.819 100.836 142.359 101.549 143.739C102.26 145.118 101.721 146.813 100.341 147.527L69.521 163.442C69.108 163.653 68.6668 163.754 68.2341 163.754Z" fill="#E6D9A2"/>
<path d="M187.507 164.364C187.061 164.364 186.605 164.257 186.181 164.033L155.333 147.507C153.967 146.774 153.45 145.071 154.184 143.702C154.917 142.337 156.623 141.822 157.988 142.553L188.836 159.078C190.202 159.812 190.719 161.515 189.986 162.883C189.48 163.827 188.508 164.364 187.507 164.364Z" fill="#E6D9A2"/>
<path d="M156.665 113.492C155.662 113.492 154.692 112.955 154.183 112.008C153.45 110.64 153.967 108.937 155.336 108.203L186.302 91.6188C187.665 90.8826 189.373 91.3996 190.107 92.7681C190.84 94.1366 190.323 95.8394 188.954 96.5728L157.988 113.157C157.567 113.385 157.112 113.492 156.665 113.492Z" fill="#E6D9A2"/>
<path d="M99.0485 113.492C98.6157 113.492 98.1774 113.391 97.7671 113.18L66.8037 97.2641C65.424 96.5559 64.8789 94.8615 65.5898 93.4818C66.3007 92.1021 67.9952 91.5598 69.3721 92.2679L100.335 108.184C101.715 108.892 102.26 110.586 101.549 111.966C101.052 112.935 100.069 113.492 99.0485 113.492Z" fill="#E6D9A2"/>
</svg>
