<svg width="71" height="64" viewBox="0 0 71 64" fill="none" xmlns="http://www.w3.org/2000/svg">
<path d="M9.02782 41.2555C9.0877 41.3909 9.15539 41.5159 9.22829 41.6408C9.26213 41.7137 9.309 41.7892 9.35065 41.8569C9.41835 41.9923 9.49124 42.1225 9.56154 42.2527L9.97029 42.94C10.0458 43.0676 10.1187 43.1925 10.2046 43.3175C10.3478 43.5622 10.517 43.8018 10.6654 44.0465C10.7331 44.148 10.7956 44.2496 10.8711 44.3511C11.1575 44.7963 11.4179 45.166 11.6964 45.5253C11.8943 45.7935 12.0922 46.0564 12.3057 46.3194C12.376 46.4183 12.4541 46.5172 12.527 46.6162L13.1023 47.3139C13.1726 47.3946 13.2429 47.4884 13.3184 47.5717C13.5736 47.8789 13.8443 48.1757 14.1151 48.4777C14.1151 48.4829 14.1229 48.4881 14.1281 48.4959C14.464 48.9177 14.8259 49.2926 15.2216 49.6259L15.232 49.6363C15.4403 49.8498 15.6486 50.0606 15.8699 50.2689L16.1329 50.5215C16.4218 50.7922 16.7108 51.0604 17.0154 51.3207C17.0207 51.3207 17.0233 51.326 17.0285 51.3286L17.1769 51.4587C17.4424 51.6904 17.7106 51.9196 17.984 52.133L18.3094 52.4064C18.5307 52.5835 18.7598 52.7501 18.9863 52.9245L19.3404 53.1953C19.5825 53.3775 19.8403 53.5546 20.0876 53.7316C20.1787 53.7967 20.2699 53.8618 20.3636 53.9217L20.4391 53.9816L21.1707 54.4606L21.4831 54.6689C21.8658 54.9136 22.2459 55.1427 22.6261 55.3718C22.7354 55.4265 22.8448 55.4864 22.9463 55.5489C23.2275 55.7103 23.5191 55.8743 23.8029 56.0227C23.9591 56.1112 24.1205 56.1867 24.2819 56.2675C24.4772 56.3768 24.6802 56.4835 24.8885 56.5929C24.9458 56.6111 24.9927 56.6293 25.0395 56.6554L25.0499 56.645C25.1359 56.684 25.2166 56.7257 25.2999 56.7673C25.6123 56.9235 25.9377 57.0719 26.2762 57.2177C26.3387 57.2438 26.4064 57.2698 26.4741 57.3063C26.849 57.4703 27.2239 57.6265 27.6118 57.7775C27.7003 57.8035 27.7941 57.8478 27.8852 57.8816C28.2367 58.0144 28.5986 58.1498 28.9578 58.2774L29.088 58.3242C29.4864 58.4596 29.8795 58.5898 30.2856 58.7122C30.3794 58.7382 30.4757 58.7721 30.5746 58.7981C30.9886 58.9231 31.3895 59.0715 31.8087 59.1496C58.5548 63.9999 66.3263 43.1483 66.3263 43.1483C59.7967 51.6097 48.2083 53.841 37.2345 51.3572C36.8283 51.2635 36.4222 51.1333 36.0108 51.0135C35.4302 50.8492 34.8546 50.6678 34.2847 50.4694L34.532 50.5449L34.3706 50.4824C34.0165 50.3626 33.6754 50.2299 33.3292 50.0971C33.2444 50.0611 33.1585 50.0281 33.0714 49.9982L33.0428 49.9903C32.6601 49.8367 32.2878 49.6805 31.9181 49.5165C31.8373 49.4905 31.7697 49.454 31.6889 49.4228C31.251 49.2319 30.817 49.0323 30.3872 48.824L30.7465 48.9828C30.6527 48.9413 30.5607 48.8962 30.4705 48.8474C30.2258 48.7328 29.981 48.6027 29.7415 48.4803C29.5591 48.3939 29.3793 48.3018 29.2026 48.2043L29.2546 48.2304C28.9604 48.0741 28.6662 47.9049 28.3694 47.7461C28.2809 47.6836 28.1794 47.6315 28.0778 47.5743C27.6367 47.3179 27.2009 47.0522 26.7709 46.7776L26.9349 46.8765C26.8247 46.8084 26.717 46.7364 26.6121 46.6604L26.6277 46.6708C26.3479 46.499 26.0735 46.3184 25.805 46.1293C25.7164 46.072 25.6357 46.0095 25.5446 45.9471C25.2641 45.7556 24.9881 45.5577 24.7167 45.3535L24.7792 45.3977C24.6698 45.3092 24.5527 45.2259 24.4355 45.14C24.2064 44.9603 23.9747 44.7885 23.7456 44.601L23.4384 44.3563C23.1109 44.0958 22.7897 43.8276 22.4751 43.5518L22.4724 43.5492L21.569 42.7291L21.3087 42.4844C21.0952 42.2683 20.8765 42.0626 20.6578 41.8491L20.4052 41.5888C20.1357 41.3218 19.8727 41.0484 19.6164 40.7686L19.6008 40.7504L19.5565 40.714C19.2808 40.4112 19.0092 40.1048 18.7416 39.7949C18.6713 39.7142 18.6062 39.6283 18.5333 39.5424L17.9423 38.8264C17.6759 38.4918 17.4155 38.1524 17.1612 37.8084L17.0571 37.6626C10.97 29.3938 8.76746 17.9825 13.6387 8.62024L9.33764 14.059C3.80513 21.9711 4.48986 32.2603 8.7206 40.6619C8.81693 40.8676 8.92368 41.0602 9.02782 41.2555Z" fill="#1266A9"/>
<path d="M27.6613 29.8573L27.6327 29.8157L27.6093 29.7844L27.6613 29.8573Z" fill="black"/>
<path d="M30.5721 33.2731L30.8064 33.5074C31.1032 33.7938 31.4078 34.0724 31.7176 34.351L31.7567 34.3848C32.0691 34.6608 32.4206 34.9498 32.7825 35.231L32.8371 35.2726C32.9257 35.3325 33.0012 35.4028 33.0871 35.4627C33.4516 35.7439 33.8187 36.012 34.2014 36.2802L34.2404 36.3036C34.4019 36.4208 34.5737 36.5275 34.7559 36.6421C34.8288 36.689 34.9122 36.7514 34.9903 36.7983C35.2662 36.9753 35.537 37.1394 35.8156 37.3086C35.8598 37.3268 35.8989 37.3502 35.9405 37.3685C36.1749 37.5117 36.43 37.6497 36.6747 37.7746C36.7607 37.8267 36.844 37.8657 36.9325 37.9152C37.1069 38.0011 37.2788 38.0923 37.4454 38.1808L37.5287 38.2172C37.8802 38.3891 38.2395 38.5505 38.5909 38.7093C38.6795 38.7431 38.755 38.7718 38.8305 38.8082C39.1195 38.9332 39.4137 39.053 39.7027 39.1623C39.8328 39.2066 39.9552 39.2586 40.0776 39.2977C40.3431 39.3966 40.6217 39.4877 40.8847 39.5789L41.2491 39.696C41.6293 39.8132 42.0146 39.9668 42.4181 40.0293C63.0719 43.4295 67.852 27.6078 67.852 27.6078C63.5484 33.7704 55.2197 36.7072 46.3443 34.4135C45.9012 34.3017 45.4619 34.1758 45.0269 34.036L45.1753 34.0776C45.0503 34.0438 44.941 34.0047 44.8212 33.9683C44.5504 33.8745 44.2718 33.7834 44.0089 33.6871L43.634 33.5465C43.3424 33.4293 43.0456 33.32 42.7618 33.195C42.6733 33.156 42.5926 33.1299 42.5249 33.0909C42.1604 32.9268 41.7933 32.7654 41.4366 32.5936L40.9003 32.315L40.5905 32.1588C40.3509 32.0338 40.1296 31.9037 39.9005 31.7709C39.8421 31.7434 39.7856 31.7121 39.7313 31.6772L39.7391 31.6798C39.4631 31.5079 39.1767 31.3413 38.9112 31.1669C38.8227 31.1174 38.7419 31.0575 38.6586 31.0054L38.1171 30.654C37.7422 30.3936 37.3751 30.115 37.0028 29.8443C36.9195 29.7688 36.8388 29.7063 36.7581 29.6386C32.8554 26.5846 29.778 22.4112 28.3174 17.6858C26.7787 12.7729 27.1172 7.26384 29.7754 2.79358L26.508 7.39662C22.4959 13.127 22.7224 20.7866 25.8467 26.8476C26.4168 27.9671 26.9948 28.9122 27.6327 29.813C28.2263 30.6618 28.8824 31.6563 29.6739 32.3384C29.955 32.6587 30.257 32.9633 30.5721 33.2731Z" fill="#1266A9"/>
<path d="M11.7095 45.5409L11.6991 45.5253L11.6808 45.5019L11.7095 45.5409ZM22.535 43.6039L22.561 43.6221L22.5662 43.6299L22.535 43.6039Z" fill="black"/>
<path d="M40.9471 2.41347C38.5805 5.86836 38.354 10.159 39.9838 13.9679C41.7152 18.0138 45.2533 21.1901 49.3773 22.695C49.5466 22.7601 49.7106 22.8147 49.885 22.8772L50.1141 22.9475C50.3537 23.023 50.5958 23.1115 50.8431 23.1662C62.2492 25.3558 65.337 17.3395 66.1675 16.1601C63.452 20.0394 58.8985 20.9714 53.3113 19.6202C52.8255 19.5017 52.3473 19.3539 51.8793 19.1776L51.9653 19.2062C51.383 19.0047 50.8128 18.77 50.2573 18.5033L50.3563 18.5476C49.2888 18.0268 48.3724 17.4645 47.521 16.8188C42.5275 13.0437 39.4397 5.85534 42.6993 0L40.9471 2.41347Z" fill="#1266A9"/>
</svg>
