<svg width="64" height="64" viewBox="0 0 64 64" fill="none" xmlns="http://www.w3.org/2000/svg">
<g clip-path="url(#clip0_6_12)">
<path d="M64.0533 -0.207031H32H-0.0533447L5.95199 57.2988L32 63.8118L58.0373 57.2988L64.0533 -0.207031Z" fill="#E6A329"/>
<path d="M32 4.47998V58.9412L53.0933 53.6659L58.2293 4.47998H32Z" fill="#F1BF22"/>
<path d="M48.784 11.5341H16.3413L14.0853 33.0635L14.1333 32.9271H41.6907L40.7893 42.0376L32 44.2729L23.0773 42.0047L22.5387 36.4894H14.4373L15.5947 47.5059L32 51.6188L48.4053 47.5059L50.6613 25.8918H21.4187L21.792 18.6824H42.0907L42.3893 22.8094H50.5653L48.784 11.5341Z" fill="white"/>
<path d="M32 11.5341H16.336L14.0853 33.0635L14.1333 32.9318H32V25.8824H22.5493L22.9227 18.6729H31.9893L32 11.5341ZM22.5387 36.4753H14.4373L15.5947 47.5294L32 51.6094V44.2729L23.0773 42.0047L22.5387 36.4753Z" fill="#EBEBEB"/>
</g>
<defs>
<clipPath id="clip0_6_12">
<rect width="64" height="64" fill="white"/>
</clipPath>
</defs>
</svg>
