<svg width="76" height="78" viewBox="0 0 76 78" fill="none" xmlns="http://www.w3.org/2000/svg">
<path d="M54.497 54.8545C54.9391 51.1656 54.8066 50.6245 57.5498 51.222L58.2463 51.2833C60.3556 51.3795 63.1149 50.9435 64.736 50.1891C68.2256 48.5673 70.2949 45.8593 66.8539 46.5709C59.005 48.1927 58.4654 45.5306 58.4654 45.5306C66.7534 33.2129 70.2181 17.5767 67.2275 13.7493C59.0707 3.30944 44.9514 8.24635 44.7152 8.37452L44.64 8.38859C43.0891 8.06612 41.3535 7.87355 39.4038 7.84197C35.8519 7.78351 33.1567 8.77468 31.1123 10.3279C31.1123 10.3279 5.92432 -0.0664018 7.09611 23.3999C7.34533 28.3918 14.2397 61.1731 22.4625 51.2716C25.4679 47.651 28.3724 44.5896 28.3724 44.5896C29.8146 45.5494 31.5413 46.0389 33.3523 45.8631L33.4923 45.7435C33.4484 46.1931 33.4678 46.6329 33.5483 47.1534C31.4303 49.524 32.0527 49.9405 27.8176 50.8134C23.5329 51.6982 26.0502 53.2728 27.6932 53.6844C29.6857 54.1835 34.295 54.8905 37.4102 50.5232L37.2862 51.0215C38.1172 51.6874 38.061 55.8077 38.1788 58.7514C38.2968 61.6953 38.4936 64.4426 39.0926 66.0622C39.6917 67.6815 40.3986 71.8535 45.9645 70.6586C50.6163 69.6601 54.1729 68.223 54.497 54.8545Z" fill="black" stroke="black" stroke-width="14"/>
<path d="M66.8547 46.5706C59.005 48.1924 58.4654 45.5303 58.4654 45.5303C66.7535 33.2118 70.2181 17.5753 67.2282 13.7483C59.0713 3.30912 44.9515 8.24619 44.7158 8.37437L44.64 8.38797C43.0892 8.0655 41.3535 7.87339 39.4029 7.8415C35.851 7.7832 33.1568 8.77421 31.1123 10.3272C31.1123 10.3272 5.92388 -0.0667141 7.09536 23.3994C7.34457 28.3916 14.2388 61.1729 22.4619 51.2714C25.4675 47.6508 28.3714 44.5895 28.3714 44.5895C29.8138 45.5492 31.5405 46.0388 33.3507 45.8629L33.4914 45.7434C33.4477 46.1929 33.4676 46.6328 33.5477 47.1533C31.4293 49.5239 32.0518 49.9403 27.817 50.8133C23.532 51.698 26.0492 53.2727 27.6928 53.6842C29.6852 54.1833 34.2949 54.8903 37.4095 50.523L37.2853 51.0213C38.1153 51.6872 38.6982 55.3529 38.6005 58.6759C38.5028 61.9987 38.4376 64.2801 39.0916 66.062C39.7456 67.8439 40.3974 71.8533 45.9644 70.6585C50.6162 69.66 53.0267 67.0724 53.362 62.7562C53.6 59.6878 54.1386 60.1413 54.1726 57.3979L54.6045 56.0991C55.1026 51.9397 54.6836 50.5976 57.5495 51.2217L58.246 51.283C60.3553 51.3791 63.1161 50.9432 64.7363 50.1888C68.2253 48.567 70.2946 45.859 66.8544 46.5706H66.8547Z" fill="#336791"/>
<path d="M37.7465 48.9549C37.5304 56.6948 37.8009 64.4886 38.5569 66.3828C39.3135 68.2769 40.9325 71.9612 46.5 70.7665C51.1512 69.7677 52.8436 67.8347 53.578 63.5684C54.1189 60.4292 55.1616 51.7115 55.2953 49.9253M31.0735 10.1543C31.0735 10.1543 5.86783 -0.164701 7.03963 23.3016C7.28884 28.2937 14.1835 61.076 22.4065 51.1741C25.4114 47.553 28.1291 44.713 28.1291 44.713M44.6882 8.27091C43.8157 8.54492 58.7091 2.81739 67.1732 13.6506C70.163 17.4778 66.6983 33.1144 58.4104 45.4333" stroke="white" stroke-width="3" stroke-linecap="round" stroke-linejoin="round"/>
<path d="M58.4103 45.4331C58.4103 45.4331 58.9504 48.096 66.8003 46.473C70.2397 45.7615 68.1698 48.4698 64.6816 50.0924C61.8188 51.4232 55.4005 51.7643 55.2957 49.9253C55.0259 45.1805 58.6736 46.622 58.4103 45.4331ZM58.4103 45.4331C58.1723 44.3624 56.5411 43.3115 55.462 40.691C54.5199 38.4037 42.5416 20.8631 58.7839 23.4682C59.3789 23.3449 54.5477 7.99316 39.3472 7.74353C24.1501 7.4939 24.6487 26.4636 24.6487 26.4636" stroke="white" stroke-width="3" stroke-linecap="round" stroke-linejoin="bevel"/>
<path d="M33.4923 47.0557C31.3736 49.4263 31.9967 49.8428 27.7616 50.7161C23.4766 51.6008 25.9942 53.1753 27.6372 53.5867C29.6297 54.0861 34.2393 54.7931 37.3539 50.4247C38.3024 49.0946 37.3483 46.9724 36.0454 46.4314C35.4159 46.1704 34.5742 45.8429 33.4923 47.0557Z" stroke="white" stroke-width="3" stroke-linecap="round" stroke-linejoin="round"/>
<path d="M33.3536 47.0145C33.1401 45.6205 33.8108 43.9619 34.5296 42.0215C35.6098 39.11 38.1021 36.1981 36.1083 26.9627C34.6223 20.0805 24.6548 25.5304 24.6485 26.4636C24.6424 27.3964 25.0994 31.1935 24.482 35.6152C23.6765 41.3851 28.1474 46.265 33.2957 45.7657" stroke="white" stroke-width="3" stroke-linecap="round" stroke-linejoin="round"/>
<path d="M30.9819 26.3237C30.9369 26.6426 31.5644 27.4929 32.3826 27.6066C33.1994 27.7207 33.8985 27.056 33.9428 26.7376C33.9871 26.4189 33.3604 26.0678 32.5419 25.9537C31.7247 25.8396 31.0253 26.0058 30.982 26.3237H30.9819Z" fill="white" stroke="white" stroke-width="3"/>
<path d="M55.8602 25.6739C55.9046 25.9928 55.2779 26.8431 54.4595 26.9568C53.6421 27.0709 52.943 26.4063 52.8982 26.0879C52.855 25.7691 53.4819 25.4181 54.2994 25.304C55.117 25.1898 55.8159 25.356 55.8602 25.6741V25.6739Z" fill="white" stroke="white" stroke-width="3"/>
<path d="M58.7839 23.4681C58.9185 25.9682 58.2463 27.671 58.1615 30.3324C58.0361 34.2007 60.0028 38.6284 57.0394 43.0615" stroke="white" stroke-width="3" stroke-linecap="round" stroke-linejoin="round"/>
</svg>
